<?xml version="1.0" ?><!DOCTYPE svg  PUBLIC '-//W3C//DTD SVG 1.1//EN'  'http://www.w3.org/Graphics/SVG/1.1/DTD/svg11.dtd'><svg enable-background="new 0 0 32 32" version="1.1" viewBox="0 0 32 32" xml:space="preserve" xmlns="http://www.w3.org/2000/svg" xmlns:xlink="http://www.w3.org/1999/xlink"><g id="Home"/><g id="Print"/><g id="Mail"/><g id="Camera"/><g id="Video"/><g id="Film"/><g id="Message"/><g id="Telephone"/><g id="User"/><g id="File"/><g id="Folder"/><g id="Map"/><g id="Download"/><g id="Upload"/><g id="Video_Recorder"/><g id="Schedule"/><g id="Cart"/><g id="Setting"/><g id="Search"/><g id="Pencils"/><g id="Group"/><g id="Record"/><g id="Headphone"/><g id="Music_Player"/><g id="Sound_On"/><g id="Sound_Off"/><g id="Lock"/><g id="Lock_open"/><g id="Love"/><g id="Favorite"/><g id="Film_1_"/><g id="Music"/><g id="Puzzle"/><g id="Turn_Off"/><g id="Book"/><g id="Save"><path d="M30.7,9.3l-8-8C22.5,1.1,22.3,1,22,1h-4h-2H8H2C1.5,1,1,1.5,1,2v28c0,0.5,0.5,1,1,1h6h8h8h6   c0.5,0,1-0.5,1-1V10C31,9.7,30.9,9.5,30.7,9.3z" fill="#3F51B5"/><g><path d="M8,9h8h2c0.5,0,1-0.5,1-1V2c0-0.5-0.5-1-1-1h-2H8C7.5,1,7,1.5,7,2v6C7,8.5,7.5,9,8,9z" fill="#8CC44A"/><path d="M24,17h-8H8c-0.5,0-1,0.5-1,1v12c0,0.5,0.5,1,1,1h8h8c0.5,0,1-0.5,1-1V18C25,17.5,24.5,17,24,17z" fill="#8CC44A"/></g></g><g id="Reload"/><g id="Trash"/><g id="Tag"/><g id="Link"/><g id="Like"/><g id="Bad"/><g id="Gallery"/><g id="Add"/><g id="Close"/><g id="Forward"/><g id="Back"/><g id="Buy"/><g id="Mac"/><g id="Laptop"/></svg>